<!--?xml version="1.0" standalone="no"?-->
              <svg id="sw-js-blob-svg" viewBox="0 0 100 100" xmlns="http://www.w3.org/2000/svg" version="1.1">
                    <defs> 
                        <linearGradient id="sw-gradient" x1="0" x2="1" y1="1" y2="0">
                            <stop id="stop1" stop-color="rgba(139, 92, 246, 1)" offset="0%"></stop>
                            <stop id="stop2" stop-color="rgba(139, 92, 246, 1)" offset="100%"></stop>
                        </linearGradient>
                    </defs>
                <path fill="url(#sw-gradient)" d="M14.3,-22.5C17.9,-20,19.7,-14.9,20.9,-10.2C22.2,-5.4,22.8,-1,24,4.7C25.2,10.5,26.9,17.7,24.8,23.2C22.7,28.8,16.7,32.7,10,35.3C3.2,38,-4.3,39.2,-9.6,36.1C-14.8,33,-17.7,25.4,-23,19.7C-28.2,14,-35.9,10.1,-38,4.6C-40,-0.8,-36.5,-7.9,-32,-13.3C-27.6,-18.7,-22.1,-22.4,-16.6,-24C-11.1,-25.7,-5.6,-25.3,-0.1,-25.2C5.4,-25,10.8,-25.1,14.3,-22.5Z" width="100%" height="100%" transform="translate(50 50)" stroke-width="0" style="transition: all 0.3s ease 0s;"></path>
              </svg>