<!--?xml version="1.0" standalone="no"?-->
              <svg id="sw-js-blob-svg" viewBox="0 0 100 100" xmlns="http://www.w3.org/2000/svg" version="1.1">
                    <defs> 
                        <linearGradient id="sw-gradient" x1="0" x2="1" y1="1" y2="0">
                            <stop id="stop1" stop-color="rgba(139, 92, 246, 1)" offset="0%"></stop>
                            <stop id="stop2" stop-color="rgba(139, 92, 246, 1)" offset="100%"></stop>
                        </linearGradient>
                    </defs>
                <path fill="url(#sw-gradient)" d="M18.9,-26.1C20.8,-20.9,16.1,-11.4,15.9,-4C15.7,3.4,20.1,8.7,20.7,16.1C21.4,23.5,18.4,32.9,14.1,31.3C9.8,29.6,4.2,16.8,-3.3,12.6C-10.8,8.4,-20.2,12.7,-26.9,10.9C-33.5,9,-37.4,0.8,-34.1,-4C-30.8,-8.8,-20.4,-10.3,-13.5,-14.6C-6.6,-18.9,-3.3,-26,2.6,-29.1C8.5,-32.2,17,-31.3,18.9,-26.1Z" width="100%" height="100%" transform="translate(50 50)" stroke-width="0" style="transition: all 0.3s ease 0s;"></path>
              </svg>