<svg version="1.1" id="Layer_1" xmlns="http://www.w3.org/2000/svg" xmlns:xlink="http://www.w3.org/1999/xlink" x="0px" y="0px"
	 width="100%" viewBox="0 0 100 100" enable-background="new 0 0 100 100" xml:space="preserve">
<path fill="#000000" opacity="1.000000" stroke="none" 
	d="
M62.000000,101.000000 
	C41.333336,101.000000 21.166674,101.000000 1.000008,101.000000 
	C1.000005,67.666679 1.000005,34.333351 1.000003,1.000021 
	C34.333317,1.000014 67.666634,1.000014 100.999969,1.000007 
	C100.999977,34.333313 100.999977,67.666626 100.999985,100.999969 
	C88.166664,101.000000 75.333336,101.000000 62.000000,101.000000 
M89.314331,59.366364 
	C89.199242,57.558537 89.084152,55.750710 89.590637,53.417591 
	C91.256821,45.861691 88.582680,40.309967 81.994659,36.362656 
	C81.019363,35.778290 80.134743,34.199558 80.087105,33.044624 
	C79.736305,24.539984 72.018700,16.700157 64.546440,15.112096 
	C54.232189,12.920036 44.104401,17.161282 40.470726,25.281967 
	C38.743862,29.141237 36.580467,30.266396 32.608276,30.081278 
	C26.459898,29.794739 21.383392,33.118992 19.603786,39.134571 
	C18.808073,41.824310 17.384315,42.908257 15.374863,44.171577 
	C7.574116,49.075821 7.760617,60.805241 15.762206,65.129669 
	C17.636082,66.142403 19.945360,66.349510 21.324518,67.117249 
	C17.539469,70.755707 18.162325,73.624756 23.301029,75.777092 
	C29.887983,88.588020 48.163136,91.794586 58.596443,80.317284 
	C64.665596,84.632874 70.900475,84.094315 76.375450,79.301483 
	C77.899055,77.967720 80.366219,77.201942 82.440575,77.113297 
	C86.756668,76.928856 89.561806,74.983978 91.282753,71.213661 
	C93.233055,66.940865 92.067917,61.348694 89.314331,59.366364 
z"/>
<path fill="#892BE0" opacity="1.000000" stroke="none" 
	d="
M22.054321,66.927269 
	C19.945360,66.349510 17.636082,66.142403 15.762206,65.129669 
	C7.760617,60.805241 7.574116,49.075821 15.374863,44.171577 
	C17.384315,42.908257 18.808073,41.824310 19.603786,39.134571 
	C21.383392,33.118992 26.459898,29.794739 32.608276,30.081278 
	C36.580467,30.266396 38.743862,29.141237 40.470726,25.281967 
	C44.104401,17.161282 54.232189,12.920036 64.546440,15.112096 
	C72.018700,16.700157 79.736305,24.539984 80.087105,33.044624 
	C80.134743,34.199558 81.019363,35.778290 81.994659,36.362656 
	C88.582680,40.309967 91.256821,45.861691 88.936020,53.640495 
	C86.192047,51.928116 84.309326,49.663654 81.939117,48.175774 
	C80.414337,47.218609 78.172935,47.403042 76.166122,46.702065 
	C75.361671,44.482384 74.781700,42.567825 73.902908,40.801983 
	C69.253883,31.460220 60.075249,26.851353 48.557461,28.020452 
	C42.073479,28.678598 31.093189,37.144291 30.842005,45.383869 
	C30.684645,50.545815 31.525871,55.738209 31.628088,60.977577 
	C30.893896,61.372814 30.450663,61.707413 29.716690,62.091057 
	C28.925894,62.741989 28.425835,63.343887 27.613575,64.102737 
	C26.497849,64.981712 25.694321,65.703720 24.912916,66.464447 
	C24.935038,66.503159 24.824205,66.559509 24.355820,66.552094 
	C23.276396,66.672203 22.665358,66.799736 22.054321,66.927269 
z"/>
<path fill="#8A2BE1" opacity="1.000000" stroke="none" 
	d="
M89.012085,60.043159 
	C92.067917,61.348694 93.233055,66.940865 91.282753,71.213661 
	C89.561806,74.983978 86.756668,76.928856 82.440575,77.113297 
	C80.366219,77.201942 77.899055,77.967720 76.375450,79.301483 
	C70.900475,84.094315 64.665596,84.632874 58.596443,80.317284 
	C48.163136,91.794586 29.887983,88.588020 23.624866,75.430801 
	C26.286659,75.000977 28.624615,74.917450 31.415112,74.904213 
	C34.909538,74.918312 37.951424,74.862122 41.274548,74.793640 
	C41.993187,74.210213 42.430584,73.639084 43.003120,73.019234 
	C43.138264,72.970520 43.422535,72.928841 43.771420,73.159592 
	C49.038094,73.589172 53.955887,73.787994 59.207062,73.865211 
	C65.791939,71.063133 71.035095,67.227097 74.531776,61.164093 
	C79.598778,60.915417 84.305428,60.479290 89.012085,60.043159 
z"/>
<path fill="#F8F6E9" opacity="1.000000" stroke="none" 
	d="
M89.163208,59.704762 
	C84.305428,60.479290 79.598778,60.915417 74.642418,60.799877 
	C75.012726,55.857403 75.632729,51.466602 76.252731,47.075798 
	C78.172935,47.403042 80.414337,47.218609 81.939117,48.175774 
	C84.309326,49.663654 86.192047,51.928116 88.625229,53.903145 
	C89.084152,55.750710 89.199242,57.558537 89.163208,59.704762 
z"/>
<path fill="#54383C" opacity="1.000000" stroke="none" 
	d="
M30.962568,74.833931 
	C28.624615,74.917450 26.286659,75.000977 23.508564,75.117332 
	C18.162325,73.624756 17.539469,70.755707 21.689419,67.022263 
	C22.665358,66.799736 23.276396,66.672203 24.060833,66.868935 
	C22.868931,68.597801 21.503630,70.002403 20.138329,71.407013 
	C22.051126,72.260582 23.912724,73.270546 25.892748,73.918785 
	C27.509291,74.448029 29.267288,74.545197 30.962568,74.833931 
z"/>
<path fill="#FBFAED" opacity="1.000000" stroke="none" 
	d="
M31.415112,74.904213 
	C29.267288,74.545197 27.509291,74.448029 25.892748,73.918785 
	C23.912724,73.270546 22.051126,72.260582 20.138329,71.407013 
	C21.503630,70.002403 22.868931,68.597801 24.529219,66.876350 
	C24.824205,66.559509 24.935038,66.503159 25.301880,66.311897 
	C26.421074,65.395683 27.173424,64.670731 27.925776,63.945782 
	C28.425835,63.343887 28.925894,62.741989 29.926491,62.275589 
	C31.265970,62.316303 32.104916,62.221519 33.197567,62.140442 
	C33.639732,62.420322 33.828190,62.686493 34.062439,63.203819 
	C34.724728,63.704876 35.341221,63.954773 36.220974,64.155952 
	C36.662067,64.091965 36.839901,64.076691 37.184372,64.193649 
	C37.691219,64.168335 38.031425,64.010788 38.371632,63.853241 
	C38.009552,63.567024 37.647472,63.280807 37.200722,62.691719 
	C37.083172,62.181774 37.050293,61.974705 36.990868,61.556553 
	C36.797745,60.963673 36.631168,60.581879 36.254112,59.849571 
	C32.433926,51.690998 33.115784,44.505714 39.135120,38.084457 
	C47.055244,29.635498 59.583881,29.831135 68.233894,38.823608 
	C73.614708,44.417446 74.283943,58.190231 65.972679,64.884361 
	C60.670532,69.154861 55.156689,72.233322 47.893986,69.762970 
	C46.151962,68.932022 44.570232,68.434906 42.931793,67.614342 
	C42.275780,66.177666 41.676479,65.064438 41.077175,63.951210 
	C40.521030,64.359962 39.964886,64.768715 39.408745,65.177460 
	C40.556751,66.452827 41.704762,67.728188 42.994354,69.326172 
	C43.231472,70.742149 43.327003,71.835495 43.422531,72.928841 
	C43.422535,72.928841 43.138264,72.970520 42.733921,73.075394 
	C41.884151,73.722153 41.438728,74.264046 40.993305,74.805939 
	C37.951424,74.862122 34.909538,74.918312 31.415112,74.904213 
M53.992516,57.342674 
	C54.490417,51.829151 52.758064,46.146088 55.665211,40.113426 
	C53.636475,40.224091 52.068253,40.309639 51.700096,40.329720 
	C51.700096,48.678753 51.700096,56.216686 51.700096,63.754620 
	C52.373055,63.767132 53.046017,63.779648 53.718975,63.792160 
	C53.810154,61.957047 53.901329,60.121933 53.992516,57.342674 
z"/>
<path fill="#779AC4" opacity="1.000000" stroke="none" 
	d="
M37.017410,61.767639 
	C37.050293,61.974705 37.083172,62.181774 37.136566,62.959091 
	C37.110634,63.706703 37.064182,63.884064 37.017735,64.061424 
	C36.839901,64.076691 36.662067,64.091965 35.961281,64.027550 
	C34.964432,63.616135 34.490540,63.284397 34.016647,62.952663 
	C33.828190,62.686493 33.639732,62.420322 33.077435,61.900513 
	C32.442078,61.403561 32.180561,61.160252 31.919044,60.916939 
	C31.525871,55.738209 30.684645,50.545815 30.842005,45.383869 
	C31.093189,37.144291 42.073479,28.678598 48.557461,28.020452 
	C60.075249,26.851353 69.253883,31.460220 73.902908,40.801983 
	C74.781700,42.567825 75.361671,44.482384 76.166122,46.702065 
	C75.632729,51.466602 75.012726,55.857403 74.282074,60.612423 
	C71.035095,67.227097 65.791939,71.063133 58.809052,73.830856 
	C53.796974,73.282143 49.516285,72.646187 45.235600,72.010231 
	C45.286629,71.512550 45.337662,71.014870 45.388691,70.517189 
	C46.277222,70.377060 47.165749,70.236938 48.054279,70.096809 
	C55.156689,72.233322 60.670532,69.154861 65.972679,64.884361 
	C74.283943,58.190231 73.614708,44.417446 68.233894,38.823608 
	C59.583881,29.831135 47.055244,29.635498 39.135120,38.084457 
	C33.115784,44.505714 32.433926,51.690998 36.248734,60.067551 
	C36.641697,61.013241 36.829552,61.390438 37.017410,61.767639 
z"/>
<path fill="#F8F7EA" opacity="1.000000" stroke="none" 
	d="
M31.628088,60.977577 
	C32.180561,61.160252 32.442078,61.403561 32.823727,61.886806 
	C32.104916,62.221519 31.265970,62.316303 30.217228,62.226551 
	C30.450663,61.707413 30.893896,61.372814 31.628088,60.977577 
z"/>
<path fill="#54383C" opacity="1.000000" stroke="none" 
	d="
M27.613575,64.102737 
	C27.173424,64.670731 26.421074,65.395683 25.279758,66.273186 
	C25.694321,65.703720 26.497849,64.981712 27.613575,64.102737 
z"/>
<path fill="#5E4B65" opacity="1.000000" stroke="none" 
	d="
M47.893986,69.762970 
	C47.165749,70.236938 46.277222,70.377060 45.388691,70.517189 
	C45.337662,71.014870 45.286629,71.512550 45.235600,72.010231 
	C49.516285,72.646187 53.796974,73.282143 58.475670,73.952454 
	C53.955887,73.787994 49.038094,73.589172 43.771416,73.159592 
	C43.327003,71.835495 43.231472,70.742149 43.065834,69.064514 
	C42.993320,68.299416 42.990910,68.118599 42.988503,67.937790 
	C44.570232,68.434906 46.151962,68.932022 47.893986,69.762970 
z"/>
<path fill="#F8F7EA" opacity="1.000000" stroke="none" 
	d="
M41.274548,74.793640 
	C41.438728,74.264046 41.884151,73.722153 42.598778,73.124100 
	C42.430584,73.639084 41.993187,74.210213 41.274548,74.793640 
z"/>
<path fill="#98733D" opacity="1.000000" stroke="none" 
	d="
M53.992508,57.814747 
	C53.901329,60.121933 53.810154,61.957047 53.718975,63.792160 
	C53.046017,63.779648 52.373055,63.767132 51.700096,63.754620 
	C51.700096,56.216686 51.700096,48.678753 51.700096,40.329720 
	C52.068253,40.309639 53.636475,40.224091 55.665211,40.113426 
	C52.758064,46.146088 54.490417,51.829151 53.992508,57.814747 
z"/>
<path fill="#F8F7EA" opacity="1.000000" stroke="none" 
	d="
M42.931793,67.614342 
	C42.990910,68.118599 42.993320,68.299416 42.924248,68.741890 
	C41.704762,67.728188 40.556751,66.452827 39.408745,65.177460 
	C39.964886,64.768715 40.521030,64.359962 41.077175,63.951210 
	C41.676479,65.064438 42.275780,66.177666 42.931793,67.614342 
z"/>
<path fill="#F8F7EA" opacity="1.000000" stroke="none" 
	d="
M37.184372,64.193649 
	C37.064182,63.884064 37.110634,63.706703 37.221241,63.261971 
	C37.647472,63.280807 38.009552,63.567024 38.371632,63.853241 
	C38.031425,64.010788 37.691219,64.168335 37.184372,64.193649 
z"/>
<path fill="#F8F7EA" opacity="1.000000" stroke="none" 
	d="
M34.062439,63.203819 
	C34.490540,63.284397 34.964432,63.616135 35.698021,64.076271 
	C35.341221,63.954773 34.724728,63.704876 34.062439,63.203819 
z"/>
<path fill="#F8F7EA" opacity="1.000000" stroke="none" 
	d="
M36.990868,61.556553 
	C36.829552,61.390438 36.641697,61.013241 36.459221,60.418060 
	C36.631168,60.581879 36.797745,60.963673 36.990868,61.556553 
z"/>
</svg>